<svg width="48" height="48" viewBox="0 0 48 48" fill="none" xmlns="http://www.w3.org/2000/svg">
<rect x="3.3" y="13.2" width="41.4" height="21.6" fill="white"/>
<path fill-rule="evenodd" clip-rule="evenodd" d="M25.7941 0.448339C24.6721 -0.149446 23.3279 -0.149447 22.2059 0.448339L3.03406 10.6625C1.7825 11.3293 1 12.6358 1 14.0585V33.9415C1 35.3642 1.78249 36.6707 3.03406 37.3375L22.2059 47.5517C23.3279 48.1494 24.6721 48.1494 25.7941 47.5517L44.9659 37.3375C46.2175 36.6707 47 35.3642 47 33.9415V14.0585C47 12.6358 46.2175 11.3293 44.9659 10.6625L25.7941 0.448339ZM17 15V22H31V15H35V16H38V17H41V22H42V26H41V31H38V32H35V33H31V26H17V33H13V32H10V31H7V26H6V22H7V17H10V16H13V15H17ZM14 16H16V32H14V16ZM17 25V23H31V25H17ZM34 32H32V16H34V32ZM10 18V30H8V18H10ZM11 31V17H13V31H11ZM38 30V18H40V30H38ZM37 17V31H35V17H37Z" fill="#2A4C7D"/>
</svg>
